<svg xmlns="http://www.w3.org/2000/svg" width="41.151" height="32" viewBox="0 0 41.151 32">
  <path id="Icon_awesome-home" data-name="Icon awesome-home" d="M20.029,10.555,6.858,21.4V33.111A1.143,1.143,0,0,0,8,34.254l8.005-.021a1.143,1.143,0,0,0,1.137-1.143V26.253a1.143,1.143,0,0,1,1.143-1.143h4.572A1.143,1.143,0,0,1,24,26.253v6.832a1.143,1.143,0,0,0,1.143,1.147l8,.022a1.143,1.143,0,0,0,1.143-1.143V21.395L21.122,10.555A.871.871,0,0,0,20.029,10.555Zm20.8,7.373-5.972-4.923V3.111A.857.857,0,0,0,34,2.254H30a.857.857,0,0,0-.857.857V8.3l-6.4-5.262a3.429,3.429,0,0,0-4.358,0L.31,17.928A.857.857,0,0,0,.2,19.135L2.017,21.35a.857.857,0,0,0,1.208.116l16.8-13.84a.871.871,0,0,1,1.093,0l16.8,13.84a.857.857,0,0,0,1.207-.114l1.822-2.215a.857.857,0,0,0-.121-1.209Z" transform="translate(0.001 -2.254)" fill="#242424"/>
</svg>
