<svg width="20" height="20" viewBox="0 0 20 20" fill="none" xmlns="http://www.w3.org/2000/svg">
<path fill-rule="evenodd" clip-rule="evenodd" d="M16.7586 2.54079C16.4906 2.60875 16.2489 2.72547 16.0287 2.89319C15.6929 3.14902 10.8418 8.03977 10.5991 8.36713C9.9661 9.22122 9.60921 10.2459 9.59306 11.2556C9.58818 11.5608 9.59596 11.6136 9.66372 11.7341C9.70559 11.8086 9.79842 11.9101 9.87005 11.9596C9.99785 12.0479 10.0087 12.0495 10.4585 12.0463C11.5188 12.0387 12.5806 11.6377 13.4728 10.9079C13.5892 10.8127 14.8432 9.5727 16.2594 8.15243C18.7547 5.65009 18.8382 5.56244 18.9546 5.32172C19.1715 4.87366 19.2218 4.42869 19.1066 3.97822C18.9379 3.31865 18.4886 2.82019 17.8645 2.60031C17.5681 2.49586 17.0464 2.46779 16.7586 2.54079ZM17.5034 3.85756C17.8221 4.02101 17.9521 4.37904 17.8059 4.691C17.7217 4.87083 12.6596 9.91904 12.3701 10.1119C11.9924 10.3636 11.4452 10.6036 11.0715 10.6815C10.9403 10.7088 10.9396 10.6978 11.0471 10.3267C11.1423 9.9982 11.3673 9.53327 11.5764 9.23313C11.7558 8.97548 16.7581 3.94934 16.9241 3.85987C17.0764 3.77785 17.3459 3.77677 17.5034 3.85756ZM5.34087 4.28614C4.11912 4.44501 3.0757 5.30388 2.67342 6.4818C2.4974 6.9972 2.5 6.92381 2.5 11.3974C2.5 15.3861 2.50235 15.5485 2.56301 15.7857C2.74886 16.5124 3.28809 17.0507 4.00881 17.2289C4.31705 17.3051 4.77937 17.2808 5.08892 17.1722C5.41377 17.0581 5.60839 16.9223 6.16813 16.4189L6.66161 15.975L10.2707 15.9658L13.8798 15.9567L14.1728 15.8659C15.339 15.5047 16.1548 14.6757 16.4586 13.5432C16.5411 13.2353 16.5454 13.1791 16.5583 12.213C16.5733 11.0923 16.5654 11.0304 16.3814 10.8268C16.1315 10.5502 15.7105 10.546 15.4525 10.8175C15.2741 11.0054 15.2636 11.0735 15.2636 12.0433C15.2636 12.8179 15.2553 12.9668 15.2006 13.1809C15.0266 13.8611 14.5623 14.3589 13.8798 14.597C13.7297 14.6493 13.4239 14.6551 9.97255 14.6703C6.55996 14.6855 6.21938 14.6918 6.12928 14.7412C6.07491 14.771 5.76721 15.0322 5.44552 15.3216C5.12383 15.611 4.802 15.8757 4.73037 15.9097C4.48822 16.0248 4.14992 15.9638 3.97491 15.7734C3.79358 15.5762 3.80237 15.7999 3.80296 11.3913C3.80358 6.94224 3.7972 7.09738 3.99673 6.67938C4.2378 6.17418 4.64672 5.82881 5.23844 5.63055C5.4013 5.57598 5.63434 5.57045 8.42835 5.55462L11.4426 5.53756L11.5779 5.44799C11.8028 5.29909 11.9149 5.00012 11.8441 4.73743C11.7948 4.55447 11.5827 4.33723 11.4051 4.28794C11.251 4.24515 5.66875 4.24352 5.34087 4.28614ZM5.54883 8.20554C5.19259 8.33486 5.01169 8.75154 5.16635 9.08661C5.23909 9.24424 5.34217 9.34345 5.50309 9.41065C5.68204 9.48544 7.7836 9.48544 7.96255 9.41065C8.4714 9.19807 8.48966 8.50343 7.99358 8.23227C7.90013 8.18118 7.7682 8.17412 6.78166 8.16741C5.89872 8.16138 5.64915 8.1691 5.54883 8.20554ZM5.54883 10.8103C5.19259 10.9397 5.01169 11.3563 5.16635 11.6914C5.23909 11.849 5.34217 11.9483 5.50309 12.0155C5.68204 12.0903 7.7836 12.0903 7.96255 12.0155C8.4714 11.8029 8.48966 11.1082 7.99358 10.8371C7.90013 10.786 7.7682 10.7789 6.78166 10.7722C5.89872 10.7662 5.64915 10.7739 5.54883 10.8103Z" fill="#0D47A1"/>
</svg>
