<svg width="20" height="20" viewBox="0 0 20 20" fill="none" xmlns="http://www.w3.org/2000/svg">
<path d="M3.33333 8.75C2.64166 8.75 2.08333 9.30833 2.08333 10C2.08333 10.6917 2.64166 11.25 3.33333 11.25C4.02499 11.25 4.58333 10.6917 4.58333 10C4.58333 9.30833 4.02499 8.75 3.33333 8.75ZM3.33333 3.75C2.64166 3.75 2.08333 4.30833 2.08333 5C2.08333 5.69167 2.64166 6.25 3.33333 6.25C4.02499 6.25 4.58333 5.69167 4.58333 5C4.58333 4.30833 4.02499 3.75 3.33333 3.75ZM3.33333 13.75C2.64166 13.75 2.08333 14.3167 2.08333 15C2.08333 15.6833 2.64999 16.25 3.33333 16.25C4.01666 16.25 4.58333 15.6833 4.58333 15C4.58333 14.3167 4.02499 13.75 3.33333 13.75ZM6.66666 15.8333H16.6667C17.125 15.8333 17.5 15.4583 17.5 15C17.5 14.5417 17.125 14.1667 16.6667 14.1667H6.66666C6.20833 14.1667 5.83333 14.5417 5.83333 15C5.83333 15.4583 6.20833 15.8333 6.66666 15.8333ZM6.66666 10.8333H16.6667C17.125 10.8333 17.5 10.4583 17.5 10C17.5 9.54167 17.125 9.16667 16.6667 9.16667H6.66666C6.20833 9.16667 5.83333 9.54167 5.83333 10C5.83333 10.4583 6.20833 10.8333 6.66666 10.8333ZM5.83333 5C5.83333 5.45833 6.20833 5.83333 6.66666 5.83333H16.6667C17.125 5.83333 17.5 5.45833 17.5 5C17.5 4.54167 17.125 4.16667 16.6667 4.16667H6.66666C6.20833 4.16667 5.83333 4.54167 5.83333 5Z" fill="#0D47A1"/>
</svg>
