<svg width="20" height="20" viewBox="0 0 20 20" fill="none" xmlns="http://www.w3.org/2000/svg">
<path d="M15.475 2.42188H6.20938C4.81563 2.42188 3.68438 3.55625 3.68438 4.94688V5.7875H2.84063C2.375 5.79063 2 6.16563 2 6.63125C2 7.09688 2.375 7.47188 2.84063 7.47188H3.68125V9.15625H2.84063C2.375 9.15938 2 9.53438 2 10C2 10.4656 2.375 10.8406 2.84063 10.8406H3.68125V12.525H2.84063C2.375 12.525 2 12.9031 2 13.3688C2 13.8344 2.375 14.2094 2.84063 14.2094H3.68125V15.05C3.68125 16.4438 4.81563 17.575 6.20625 17.575H15.4688C16.8625 17.575 17.9938 16.4406 17.9938 15.05V4.94688C18 3.55625 16.8656 2.42188 15.475 2.42188ZM5.36875 4.94688C5.36875 4.48438 5.74688 4.10625 6.20938 4.10625V5.79063H5.36875V4.94688ZM5.36875 7.475H6.20938V9.15938H5.36875V7.475ZM5.36875 10.8406H6.20938V12.525H5.36875V10.8406ZM5.36875 15.0531V14.2125H6.20938V15.8969C5.74688 15.8938 5.36875 15.5156 5.36875 15.0531ZM16.3156 15.0531C16.3156 15.5156 15.9375 15.8938 15.475 15.8938H7.05313V4.10625H15.475C15.9375 4.10625 16.3156 4.48438 16.3156 4.94688V15.0531Z" fill="#0D47A1"/>
<path d="M11.2625 10.4219C12.1928 10.4219 12.9469 9.66773 12.9469 8.73748C12.9469 7.80722 12.1928 7.0531 11.2625 7.0531C10.3322 7.0531 9.57812 7.80722 9.57812 8.73748C9.57812 9.66773 10.3322 10.4219 11.2625 10.4219Z" fill="#0D47A1"/>
<path d="M11.2625 11.1406C9.94687 11.1406 9.15625 11.7437 9.15625 12.3437C9.15625 12.6437 9.94687 12.9469 11.2625 12.9469C12.4969 12.9469 13.3687 12.6469 13.3687 12.3437C13.3687 11.7437 12.5437 11.1406 11.2625 11.1406Z" fill="#0D47A1"/>
</svg>
