<svg width="112" height="23" viewBox="0 0 112 23" fill="none" xmlns="http://www.w3.org/2000/svg">
<path d="M19.6063 17.4845H16.6688L18.5047 6.20161H21.4426L19.6063 17.4845ZM14.1976 6.20161L11.3971 13.9621L11.0657 12.2909L11.066 12.2915L10.0776 7.21751C10.0776 7.21751 9.95805 6.20161 8.6841 6.20161H4.05433L4 6.39266C4 6.39266 5.41579 6.68722 7.07274 7.68229L9.62485 17.4848H12.6855L17.3591 6.20161H14.1976V6.20161ZM37.3027 17.4845H40L37.6483 6.20131H35.2869C34.1965 6.20131 33.9309 7.04215 33.9309 7.04215L29.5498 17.4845H32.612L33.2243 15.8086H36.9587L37.3027 17.4845ZM34.0703 13.4934L35.6138 9.27103L36.4821 13.4934H34.0703ZM29.7795 8.91489L30.1987 6.49195C30.1987 6.49195 28.9051 6 27.5566 6C26.0989 6 22.6371 6.63712 22.6371 9.73521C22.6371 12.6501 26.7001 12.6863 26.7001 14.2174C26.7001 15.7485 23.0557 15.4741 21.853 14.5087L21.4163 17.0421C21.4163 17.0421 22.728 17.6792 24.732 17.6792C26.7366 17.6792 29.7608 16.6412 29.7608 13.8163C29.7608 10.8827 25.6613 10.6096 25.6613 9.33411C25.6616 8.05835 28.5224 8.22223 29.7795 8.91489V8.91489Z" fill="#2566AF"/>
<path d="M11.066 12.2912L10.0776 7.2172C10.0776 7.2172 9.95805 6.20131 8.68411 6.20131H4.05433L4 6.39236C4 6.39236 6.22525 6.85352 8.35966 8.58139C10.4005 10.2329 11.066 12.2912 11.066 12.2912Z" fill="#E6A540"/>
<path d="M63.5117 15.4117V15.1861H63.4533L63.3857 15.341L63.3185 15.1861H63.2599V15.4117H63.3014V15.2418L63.3646 15.3884H63.4076L63.4707 15.2414V15.4117H63.5119H63.5117ZM63.1412 15.4117V15.2248H63.2159V15.1867H63.0249V15.2248H63.0997V15.4117H63.1408H63.1412Z" fill="#F79410"/>
<path d="M56.8733 16.3793H51.8191V7.24231H56.8734L56.8733 16.3793Z" fill="#FF5F00"/>
<path d="M52.1395 11.8109C52.1395 9.95749 53.0022 8.30644 54.3456 7.24243C53.3287 6.43584 52.071 5.99808 50.776 6.00001C47.5859 6.00001 45 8.60161 45 11.8109C45 15.0203 47.5859 17.6219 50.776 17.6219C52.071 17.6238 53.3288 17.186 54.3457 16.3794C53.0024 15.3156 52.1395 13.6645 52.1395 11.8109Z" fill="#EB001B"/>
<path d="M63.6921 11.811C63.6921 15.0203 61.1062 17.6219 57.9161 17.6219C56.621 17.6238 55.3631 17.1861 54.3459 16.3795C55.6897 15.3155 56.5525 13.6645 56.5525 11.811C56.5525 9.95746 55.6897 8.3065 54.3459 7.24249C55.363 6.43593 56.6209 5.99818 57.9161 6.00007C61.1061 6.00007 63.692 8.60167 63.692 11.811" fill="#F79E1B"/>
<path fill-rule="evenodd" clip-rule="evenodd" d="M68.6921 4H83.6921V19H68.6921V4Z" fill="white"/>
<path fill-rule="evenodd" clip-rule="evenodd" d="M69.3524 17.8283H69.3095C69.3095 17.8069 69.2988 17.7747 69.2988 17.7638C69.2988 17.7532 69.2988 17.7318 69.2666 17.7318H69.2021V17.8283H69.1699V17.6029H69.2666C69.3095 17.6029 69.3417 17.6137 69.3417 17.6565C69.3417 17.6887 69.3309 17.6996 69.3203 17.7101C69.331 17.721 69.3417 17.7317 69.3417 17.7532V17.7961C69.3417 17.8069 69.3417 17.8069 69.3524 17.8069V17.8283ZM69.3095 17.6673C69.3095 17.6351 69.288 17.6351 69.2773 17.6351H69.2021V17.6996H69.2666C69.288 17.6996 69.3095 17.6887 69.3095 17.6673V17.6673ZM69.492 17.7102C69.492 17.5815 69.3847 17.474 69.2451 17.474C69.1163 17.474 69.0089 17.5815 69.0089 17.7102C69.0089 17.8497 69.1163 17.9572 69.2451 17.9572C69.3846 17.9571 69.492 17.8497 69.492 17.7102ZM69.4598 17.7102C69.4598 17.8283 69.3632 17.9142 69.2451 17.9142C69.127 17.9142 69.0411 17.8283 69.0411 17.7102C69.0411 17.6029 69.127 17.5063 69.2451 17.5063C69.3631 17.5063 69.4598 17.6029 69.4598 17.7102ZM82.6854 13.3733C82.6854 13.6954 82.4814 13.8455 82.1164 13.8455H81.4187V13.5234H82.1164C82.1808 13.5234 82.2345 13.5128 82.256 13.4914C82.2774 13.4698 82.2989 13.4376 82.2989 13.3947C82.2989 13.3517 82.2775 13.3088 82.256 13.2874C82.2345 13.2658 82.1916 13.2552 82.1272 13.2552C81.7945 13.2444 81.3758 13.2658 81.3758 12.7936C81.3758 12.5788 81.5153 12.3426 81.891 12.3426H82.6102V12.6647H81.9446C81.8803 12.6647 81.8373 12.6647 81.8051 12.6861C81.7729 12.7183 81.7515 12.7505 81.7515 12.8042C81.7515 12.8579 81.7837 12.8901 81.8266 12.9117C81.8696 12.9224 81.9126 12.9331 81.9662 12.9331H82.1594C82.3634 12.9331 82.4922 12.976 82.5781 13.0512C82.6424 13.1263 82.6854 13.223 82.6854 13.3733V13.3733ZM81.1717 13.0512C81.0858 12.976 80.9569 12.9331 80.753 12.9331H80.5598C80.5062 12.9331 80.4632 12.9223 80.4203 12.9117C80.3773 12.8901 80.3452 12.8579 80.3452 12.8042C80.3452 12.7505 80.3559 12.7183 80.3988 12.6861C80.431 12.6647 80.4739 12.6647 80.5384 12.6647H81.2039V12.3426H80.4847C80.0982 12.3426 79.9693 12.5788 79.9693 12.7936C79.9693 13.2658 80.3881 13.2444 80.7209 13.2552C80.7852 13.2552 80.8282 13.2658 80.8496 13.2874C80.871 13.3088 80.8927 13.3517 80.8927 13.3947C80.8927 13.4376 80.8711 13.4698 80.8496 13.4914C80.8174 13.5128 80.7745 13.5234 80.7101 13.5234H80.0123V13.8455H80.7101C81.075 13.8455 81.279 13.6953 81.279 13.3733C81.279 13.223 81.2362 13.1263 81.1717 13.0512V13.0512ZM79.7976 13.5343H78.9497V13.2337H79.7762V12.9332H78.9497V12.654H79.7976V12.3428H78.5954V13.8456H79.7976V13.5343ZM78.2089 12.4179C78.0907 12.3535 77.9512 12.3427 77.7687 12.3427H76.9422V13.8455H77.3071V13.2981H77.6936C77.8223 13.2981 77.8976 13.3089 77.9513 13.3625C78.0157 13.4376 78.0157 13.5665 78.0157 13.6631V13.8455H78.3699V13.5556C78.3699 13.4161 78.3592 13.3517 78.3162 13.2766C78.284 13.2335 78.2198 13.1799 78.1338 13.1477C78.2303 13.1157 78.3915 12.9868 78.3915 12.7505C78.3914 12.5789 78.327 12.4822 78.2089 12.4179V12.4179ZM76.1692 12.3427H75.0206L74.5589 12.8365L74.1188 12.3427H72.6696V13.8455H74.0974L74.559 13.3517L74.9992 13.8455H75.697V13.3411H76.1478C76.4591 13.3411 76.7705 13.2552 76.7705 12.8365C76.7705 12.4286 76.4484 12.3427 76.1692 12.3427ZM77.919 12.9654C77.8654 12.9868 77.8117 12.9868 77.7472 12.9868L77.3071 12.9976V12.654H77.7472C77.8117 12.654 77.8761 12.654 77.919 12.6862C77.962 12.7077 77.9941 12.7506 77.9941 12.815C77.9941 12.8795 77.962 12.9332 77.919 12.9654V12.9654ZM76.1692 13.0405H75.6969V12.654H76.1692C76.2981 12.654 76.3839 12.7077 76.3839 12.8365C76.3839 12.9654 76.298 13.0405 76.1692 13.0405ZM74.7844 13.0941L75.3426 12.5038V13.7168L74.7844 13.0941ZM73.9148 13.5343H73.0238V13.2337H73.8182V12.9332H73.0238V12.654H73.9256L74.3228 13.0942L73.9148 13.5343V13.5343ZM81.687 11.2584H81.1717L80.4954 10.1312V11.2584H79.7655L79.6259 10.9256H78.8744L78.7349 11.2584H78.3162C78.1444 11.2584 77.919 11.2155 77.7903 11.0866C77.6721 10.9578 77.6077 10.7861 77.6077 10.5177C77.6077 10.2922 77.6399 10.0883 77.8009 9.92727C77.9082 9.80914 78.1015 9.75552 78.3483 9.75552H78.6918V10.0776H78.3483C78.2196 10.0776 78.1443 10.0991 78.0693 10.1635C78.0048 10.228 77.9726 10.346 77.9726 10.507C77.9726 10.668 78.0048 10.7862 78.0693 10.8613C78.1229 10.9149 78.2196 10.9364 78.3161 10.9364H78.4772L78.9924 9.7556H79.5292L80.1304 11.1726V9.75552H80.6886L81.322 10.7968V9.75552H81.6869V11.2584H81.687V11.2584ZM77.4252 9.75552H77.0603V11.2584H77.4252V9.75552V9.75552ZM76.663 9.81996C76.5449 9.75552 76.4162 9.75552 76.2337 9.75552H75.407V11.2584H75.7612V10.7109H76.1477C76.2765 10.7109 76.3625 10.7216 76.4161 10.7753C76.4805 10.8505 76.4697 10.9794 76.4697 11.0652V11.2584H76.8346V10.9578C76.8346 10.829 76.8239 10.7646 76.7703 10.6894C76.7381 10.6465 76.6737 10.5928 76.5986 10.5606C76.6951 10.5177 76.8562 10.3996 76.8562 10.1634C76.8563 9.9917 76.781 9.89505 76.663 9.81996ZM75.1493 10.9472H74.312V10.6465H75.1386V10.3353H74.312V10.0669H75.1493V9.7556H73.947V11.2585H75.1493V10.9472ZM73.6786 9.75552H73.0882L72.6481 10.7753L72.1757 9.75552H71.5961V11.1725L70.9842 9.75552H70.4475L69.8034 11.2584H70.1898L70.3293 10.9256H71.0808L71.2203 11.2584H71.9503V10.0776L72.4763 11.2584H72.7875L73.3136 10.0776V11.2584H73.6786V9.75552H73.6786ZM79.4971 10.6036L79.2501 10.0132L79.0033 10.6036H79.4971ZM76.3839 10.3675C76.3303 10.3997 76.2766 10.3997 76.2014 10.3997H75.7612V10.067H76.2014C76.2658 10.067 76.3408 10.067 76.3839 10.0884C76.4267 10.1206 76.4483 10.1636 76.4483 10.228C76.4483 10.2923 76.4268 10.3459 76.3839 10.3675V10.3675ZM70.4581 10.6036L70.705 10.0132L70.952 10.6036H70.4581V10.6036ZM82.5995 5.04283H69.7925V10.4533L70.2327 9.45499H71.1666L71.2955 9.70191V9.45499H72.3904L72.6374 9.9917L72.8735 9.45499H76.3625C76.5234 9.45499 76.6629 9.48721 76.7704 9.57304V9.45499H77.7258V9.57304C77.8867 9.48713 78.0907 9.45499 78.3269 9.45499H79.7117L79.8406 9.70191V9.45499H80.8604L81.0107 9.70191V9.45499H82.009V11.559H81L80.8068 11.237V11.559H79.5508L79.4112 11.2156H79.0998L78.9603 11.559H78.3055C78.0479 11.559 77.8545 11.4946 77.7258 11.4303V11.559H76.1692V11.076C76.1692 11.0115 76.1585 11.0008 76.1155 11.0008H76.0619V11.559H73.056V11.2906L72.9487 11.559H72.3153L72.208 11.3013V11.559H70.9949L70.8661 11.2155H70.5548L70.4152 11.559H69.7925V17.9034H82.5995V14.0495C82.46 14.1139 82.2667 14.1461 82.0735 14.1461H81.1395V14.0173C81.0322 14.1032 80.8389 14.1461 80.6565 14.1461H77.715V13.6631C77.715 13.5987 77.7044 13.5987 77.6506 13.5987H77.597V14.1461H76.6308V13.5772C76.4698 13.6523 76.2873 13.6523 76.1263 13.6523H76.0189V14.1461H74.8381L74.559 13.824L74.2477 14.1461H72.3475V12.0421H74.2798L74.5589 12.3641L74.8595 12.0421H76.1585C76.3087 12.0421 76.5557 12.0635 76.663 12.1709V12.0421H77.8223C77.9405 12.0421 78.166 12.0635 78.3162 12.1709V12.0421H80.066V12.1709C80.1626 12.085 80.3452 12.0422 80.5061 12.0422H81.483V12.1709C81.5905 12.0958 81.7407 12.0422 81.934 12.0422H82.5995V5.04283V5.04283Z" fill="#0077A6"/>
<path d="M107.692 15.6669C107.692 17.2905 106.368 18.6126 104.742 18.6126H88.6921V6.94571C88.6921 5.32209 90.0161 4 91.642 4H107.692V15.6669Z" fill="white"/>
<path d="M102.466 12.6748H103.685C103.72 12.6748 103.802 12.6632 103.836 12.6632C104.069 12.6168 104.266 12.408 104.266 12.1181C104.266 11.8398 104.069 11.631 103.836 11.573C103.802 11.5614 103.732 11.5614 103.685 11.5614H102.466V12.6748Z" fill="url(#paint0_linear_44_329)"/>
<path d="M103.546 4.98578C102.385 4.98578 101.432 5.92516 101.432 7.09649V9.28838H104.417C104.487 9.28838 104.568 9.28838 104.626 9.29997C105.3 9.33476 105.799 9.68268 105.799 10.2857C105.799 10.7612 105.462 11.1671 104.835 11.2483V11.2715C105.52 11.3179 106.043 11.7006 106.043 12.2921C106.043 12.9299 105.462 13.3474 104.696 13.3474H101.421V17.6384H104.522C105.683 17.6384 106.635 16.699 106.635 15.5277V4.98578H103.546Z" fill="#67B637"/>
<path d="M104.115 10.4249C104.115 10.1466 103.918 9.96102 103.685 9.92622C103.662 9.92622 103.604 9.91463 103.569 9.91463H102.466V10.9352H103.569C103.604 10.9352 103.674 10.9352 103.685 10.9236C103.918 10.8888 104.115 10.7032 104.115 10.4249V10.4249Z" fill="url(#paint1_linear_44_329)"/>
<path d="M91.8627 4.98578C90.7014 4.98578 89.749 5.92516 89.749 7.09649V12.3037C90.3413 12.5936 90.9569 12.7792 91.5724 12.7792C92.3041 12.7792 92.6989 12.3385 92.6989 11.7354V9.27678H94.5107V11.7238C94.5107 12.6748 93.9184 13.4518 91.9092 13.4518C90.6897 13.4518 89.7374 13.1851 89.7374 13.1851V17.6268H92.8383C93.9997 17.6268 94.952 16.6875 94.952 15.5161V4.98578H91.8627Z" fill="#047AB1"/>
<path d="M97.7044 4.98578C96.543 4.98578 95.5907 5.92516 95.5907 7.09649V9.85664C96.1249 9.40435 97.054 9.11442 98.5522 9.184C99.3535 9.21879 100.213 9.43914 100.213 9.43914V10.3321C99.7832 10.1118 99.2722 9.91463 98.6103 9.86824C97.4721 9.78706 96.7869 10.3437 96.7869 11.3179C96.7869 12.3037 97.4721 12.8603 98.6103 12.7676C99.2722 12.7212 99.7832 12.5124 100.213 12.3037V13.1967C100.213 13.1967 99.3651 13.417 98.5522 13.4518C97.054 13.5214 96.1249 13.2315 95.5907 12.7792V17.65H98.6916C99.8529 17.65 100.805 16.7106 100.805 15.5393V4.98578H97.7044Z" fill="#D42D06"/>
<defs>
<linearGradient id="paint0_linear_44_329" x1="101.43" y1="12.1195" x2="106.649" y2="12.1195" gradientUnits="userSpaceOnUse">
<stop stop-color="#007940"/>
<stop offset="0.229" stop-color="#00873F"/>
<stop offset="0.743" stop-color="#40A737"/>
<stop offset="1" stop-color="#5CB531"/>
</linearGradient>
<linearGradient id="paint1_linear_44_329" x1="101.43" y1="10.4234" x2="106.649" y2="10.4234" gradientUnits="userSpaceOnUse">
<stop stop-color="#007940"/>
<stop offset="0.229" stop-color="#00873F"/>
<stop offset="0.743" stop-color="#40A737"/>
<stop offset="1" stop-color="#5CB531"/>
</linearGradient>
</defs>
</svg>
