<svg width="24" height="24" viewBox="0 0 24 24" fill="none" xmlns="http://www.w3.org/2000/svg">
<path fill-rule="evenodd" clip-rule="evenodd" d="M3.1074 3.01081C2.75661 3.0514 2.38 3.19154 2.07343 3.39557C1.52972 3.7574 1.16695 4.30666 1.03875 4.96218L1.00652 5.12704L1.00131 10.4032C0.99783 13.9305 1.00128 15.7612 1.0117 15.9263C1.03533 16.3004 1.09356 16.5332 1.24002 16.839C1.54814 17.4823 2.12572 17.9518 2.82332 18.126C3.10143 18.1954 3.22225 18.2014 4.34544 18.2017L5.38785 18.202L5.4467 18.3028C5.90336 19.0846 6.66388 19.9179 7.45566 20.5038C9.09916 21.72 11.1868 22.2282 13.2105 21.9047C15.3187 21.5677 17.1893 20.3662 18.3763 18.5867C18.449 18.4777 18.5339 18.3465 18.565 18.295L18.6215 18.2015L19.6634 18.2013C20.26 18.2013 20.7632 18.1948 20.8408 18.1862C21.1576 18.151 21.3944 18.0825 21.6692 17.9462C21.9086 17.8275 22.1009 17.6895 22.2939 17.4976C22.4877 17.305 22.6267 17.1136 22.7446 16.8768C22.8886 16.5874 22.9547 16.359 22.9871 16.0386C22.9991 15.9206 23.0023 14.3465 22.9985 10.4855C22.9936 5.45021 22.9916 5.08876 22.9672 4.96987C22.8587 4.43967 22.646 4.04076 22.2807 3.68264C21.9431 3.35167 21.5492 3.14234 21.0615 3.03464L20.9162 3.00253L12.0676 3.00021C7.18501 2.99892 3.16899 3.00368 3.1074 3.01081ZM20.7346 3.95233C21.3389 4.01073 21.8085 4.39474 21.988 4.97736L22.0295 5.11207L22.0348 5.71453L22.0401 6.31698H11.9997H1.95921L1.96527 5.72949C1.97087 5.18444 1.97369 5.13293 2.00429 5.01638C2.15721 4.43385 2.66111 4.00587 3.25666 3.95269C3.45099 3.93534 20.5551 3.935 20.7346 3.95233ZM12.275 7.75421C13.7945 7.82162 15.1452 8.34149 16.3224 9.31193C16.5101 9.46665 16.9617 9.91491 17.1187 10.1023C17.2509 10.2602 17.4897 10.5727 17.4897 10.5879C17.4897 10.5933 15.2937 10.5978 12.6097 10.5978H7.72982L7.67337 10.6597C7.57947 10.7627 7.38538 11.0153 7.27759 11.1748C7.16951 11.3348 7.05214 11.5216 7.05214 11.5335C7.05214 11.5375 9.52583 11.5408 12.5492 11.5408H18.0463L18.0751 11.5969C18.2293 11.8974 18.4359 12.5043 18.5349 12.9477C18.6503 13.4651 18.686 13.8085 18.6858 14.3996C18.6856 15.0412 18.6403 15.4328 18.4995 16.0095C18.3652 16.5593 18.0798 17.2777 17.8471 17.6514L17.8028 17.7225H12.5774H7.35201L7.44656 17.846C7.60033 18.0468 7.78788 18.2554 8.01168 18.4746L8.2218 18.6804H12.6685H17.1152L17.0827 18.7258C17.0186 18.8153 16.5491 19.282 16.3717 19.4325C15.4212 20.2392 14.3183 20.7555 13.1194 20.9548C12.6886 21.0264 12.5351 21.0379 12.0073 21.0379C11.3872 21.0379 11.0575 21.0042 10.5238 20.8863C8.8367 20.5137 7.36285 19.5032 6.40175 18.06C6.30334 17.9122 6.18489 17.7135 6.13851 17.6184C6.09214 17.5234 6.04594 17.4355 6.03584 17.4231C6.02575 17.4108 5.97903 17.3186 5.93205 17.2182C5.07429 15.386 5.10444 13.222 6.01282 11.4212C6.14323 11.1627 6.25182 10.979 6.44228 10.6951C7.27217 9.45776 8.50669 8.5292 9.93123 8.07082C10.5031 7.88683 11.085 7.7818 11.6835 7.75455C11.8161 7.74854 11.9279 7.74264 11.932 7.74146C11.9362 7.74029 12.0905 7.74602 12.275 7.75421ZM6.83003 8.80407C5.56539 9.96504 4.73184 11.4933 4.45558 13.1573C4.37728 13.629 4.36453 13.7998 4.3641 14.3847C4.36366 14.9552 4.37336 15.1061 4.43874 15.5447C4.51203 16.0363 4.65718 16.6001 4.82189 17.0328C4.86394 17.1433 4.89836 17.2363 4.89836 17.2394C4.89836 17.2425 4.50018 17.2427 4.0135 17.2399C3.1434 17.2348 3.12676 17.2341 3.01568 17.2006C2.8777 17.159 2.6813 17.0689 2.58499 17.003C2.46934 16.924 2.30165 16.757 2.22104 16.6407C2.12879 16.5076 2.08823 16.429 2.04166 16.2933C1.95748 16.0481 1.96138 16.241 1.96138 12.3171V8.69687H4.45409H6.9468L6.83003 8.80407ZM22.0347 12.3902L22.0307 16.0835L21.9892 16.215C21.8346 16.7048 21.4949 17.0423 21.0033 17.1945L20.871 17.2355L19.9861 17.2402L19.1012 17.2449L19.1328 17.1656C19.4331 16.4129 19.6045 15.5891 19.6427 14.7146C19.7128 13.1105 19.2728 11.5446 18.3742 10.2011C18.08 9.76116 17.7775 9.39844 17.3663 8.99249L17.0669 8.69687H19.5528H22.0386L22.0347 12.3902ZM8.71059 12.9788C8.38984 13.035 8.08834 13.209 7.9024 13.4452C7.53761 13.9085 7.45527 14.7317 7.71396 15.3291C7.89113 15.7382 8.20671 15.9966 8.65617 16.1005C8.83431 16.1417 9.18123 16.1384 9.36189 16.0938C9.71217 16.0073 9.99095 15.8144 10.1527 15.5466C10.2161 15.4418 10.2901 15.2309 10.3012 15.1238L10.3097 15.0426L9.99772 15.0467L9.68579 15.0507L9.66023 15.1258C9.56379 15.409 9.32827 15.5665 9.0004 15.5669C8.59411 15.5675 8.31683 15.2876 8.24018 14.7993C8.21766 14.6558 8.2319 14.2867 8.26483 14.1601C8.30719 13.9973 8.39852 13.8259 8.49475 13.7285C8.81953 13.3999 9.40902 13.475 9.60991 13.8705C9.63459 13.9191 9.66249 13.9873 9.6719 14.0221L9.68904 14.0853H10.0023H10.3156L10.3019 13.9917C10.2835 13.8665 10.215 13.6705 10.1528 13.565C10.1249 13.5177 10.0377 13.4148 9.95902 13.3363C9.84233 13.2199 9.7907 13.1806 9.67942 13.1238C9.60435 13.0854 9.48235 13.0359 9.40831 13.0138C9.29106 12.9788 9.24262 12.973 9.03271 12.9691C8.90017 12.9666 8.75522 12.9709 8.71059 12.9788ZM10.9089 13.0563C10.9094 13.0666 11.1348 13.7418 11.4097 14.5568L11.9094 16.0386H12.3004H12.6914L13.1847 14.5568C13.456 13.7418 13.6783 13.0666 13.6786 13.0563C13.679 13.0418 13.6033 13.0375 13.3484 13.0375H13.0177L12.9889 13.1311C12.973 13.1826 12.8189 13.7012 12.6464 14.2836C12.4735 14.8676 12.3253 15.3426 12.316 15.3426C12.3067 15.3426 12.1592 14.8706 11.9873 14.2911C11.8157 13.7128 11.6616 13.1941 11.6448 13.1386L11.6143 13.0375H11.2611C10.988 13.0375 10.9081 13.0418 10.9089 13.0563ZM14.2218 13.0485C14.2221 13.0548 14.4483 13.7302 14.7245 14.5493L15.2268 16.0386L15.6169 16.0426L16.007 16.0466L16.5049 14.5458L17.0027 13.045L16.6717 13.041C16.4896 13.0388 16.3383 13.0392 16.3355 13.042C16.3328 13.0447 16.181 13.5517 15.9982 14.1686C15.8155 14.7855 15.6624 15.302 15.6581 15.3164C15.6537 15.3308 15.6421 15.3425 15.6324 15.3424C15.6218 15.3422 15.476 14.8739 15.2747 14.1936L14.9349 13.045L14.5781 13.041C14.3819 13.0388 14.2216 13.0422 14.2218 13.0485Z" fill="black"/>
</svg>
