<svg xmlns="http://www.w3.org/2000/svg" width="30.128" height="27" viewBox="0 0 30.128 27">
  <path id="heart" d="M15.064,27a1.759,1.759,0,0,1-1.165-.441c-1.217-1.072-2.39-2.079-3.426-2.968l-.005,0a63.9,63.9,0,0,1-7.48-7.072A11.341,11.341,0,0,1,0,9.121,9.526,9.526,0,0,1,2.39,2.642,8.074,8.074,0,0,1,8.416,0,7.543,7.543,0,0,1,13.15,1.646a9.725,9.725,0,0,1,1.914,2.013,9.726,9.726,0,0,1,1.914-2.013A7.543,7.543,0,0,1,21.712,0a8.075,8.075,0,0,1,6.026,2.642,9.525,9.525,0,0,1,2.39,6.478,11.339,11.339,0,0,1-2.988,7.394,63.9,63.9,0,0,1-7.479,7.072c-1.037.89-2.212,1.9-3.432,2.974a1.761,1.761,0,0,1-1.164.44ZM8.416,1.778A6.335,6.335,0,0,0,3.687,3.847,7.749,7.749,0,0,0,1.765,9.121a9.541,9.541,0,0,0,2.582,6.26,62.886,62.886,0,0,0,7.266,6.853l.006,0c1.039.892,2.217,1.9,3.443,2.983,1.233-1.082,2.413-2.095,3.454-2.988a62.9,62.9,0,0,0,7.265-6.853,9.542,9.542,0,0,0,2.582-6.26A7.749,7.749,0,0,0,26.44,3.847a6.334,6.334,0,0,0-4.729-2.069,5.826,5.826,0,0,0-3.654,1.274,8.61,8.61,0,0,0-2.037,2.374,1.11,1.11,0,0,1-1.914,0A8.6,8.6,0,0,0,12.07,3.052,5.826,5.826,0,0,0,8.416,1.778Zm0,0" transform="translate(0 0)"/>
</svg>
