<?xml version="1.0" standalone="no"?>
<!DOCTYPE svg PUBLIC "-//W3C//DTD SVG 20010904//EN"
 "http://www.w3.org/TR/2001/REC-SVG-20010904/DTD/svg10.dtd">
<svg version="1.0" xmlns="http://www.w3.org/2000/svg"
 width="2001.000000pt" height="1715.000000pt" viewBox="0 0 2001.000000 1715.000000"
 preserveAspectRatio="xMidYMid meet">

<g transform="translate(0.000000,1715.000000) scale(0.100000,-0.100000)"
fill="#000000" stroke="none">
<path d="M5139 12263 c-3864 -3867 -4875 -4883 -4913 -4940 -285 -436 -287
-968 -5 -1398 107 -162 314 -343 494 -430 177 -86 334 -120 550 -120 171 1
223 8 377 56 229 72 333 145 631 438 l237 235 0 -3052 0 -3052 7500 0 7500 0
0 3052 0 3052 238 -235 c295 -293 394 -362 627 -437 143 -47 215 -57 390 -57
171 1 223 8 377 56 239 75 463 235 619 442 71 94 170 291 199 397 64 234 64
468 0 700 -26 92 -103 256 -166 353 -38 57 -1049 1073 -4913 4940 -2676 2677
-4868 4867 -4871 4867 -3 0 -2195 -2190 -4871 -4867z m7998 -1785 l3123 -3123
0 -3052 0 -3053 -1875 0 -1875 0 0 2500 0 2500 -2500 0 -2500 0 0 -2500 0
-2500 -1875 0 -1875 0 0 3052 0 3053 3122 3122 c1718 1718 3125 3123 3128
3123 3 0 1410 -1405 3127 -3122z"/>
</g>
</svg>
