<svg width="103" height="31" viewBox="0 0 103 31" fill="none" xmlns="http://www.w3.org/2000/svg">
<mask id="mask0_154_4276" style="mask-type:alpha" maskUnits="userSpaceOnUse" x="35" y="6" width="68" height="18">
<path d="M35.0234 6.66028H102.246V23.7292H35.0234V6.66028Z" fill="white"/>
</mask>
<g mask="url(#mask0_154_4276)">
<path fill-rule="evenodd" clip-rule="evenodd" d="M35.3521 23.4003H37.2997V11.2727H35.3521V23.4003ZM36.3446 6.66028C37.0731 6.66028 37.6649 7.25304 37.6649 7.98482C37.6649 8.71661 37.0731 9.30937 36.3446 9.30937C35.6152 9.30937 35.0234 8.71661 35.0234 7.98482C35.0291 7.25585 35.6171 6.66498 36.3446 6.66028Z" fill="#343435"/>
<path fill-rule="evenodd" clip-rule="evenodd" d="M46.3805 10.9346C48.0267 10.9196 49.6119 11.565 50.7814 12.7289V6.6604H52.7281V23.4004H50.7814V21.9443C49.5932 23.0772 48.0201 23.716 46.3805 23.7292C42.8589 23.7292 40.0039 20.865 40.0039 17.3319C40.0039 13.7989 42.8589 10.9346 46.3805 10.9346ZM46.3805 12.9262C48.8057 12.9262 50.7721 14.8989 50.7721 17.3319C50.7721 19.7649 48.8057 21.7377 46.3805 21.7377C43.9554 21.7377 41.989 19.7649 41.989 17.3319C41.9684 14.9196 43.9011 12.9468 46.3047 12.9262H46.3805Z" fill="#343435"/>
<path fill-rule="evenodd" clip-rule="evenodd" d="M62.0736 10.9346C60.4302 10.9215 58.8497 11.5678 57.682 12.7289V11.2728H55.7344V23.4004H57.682V17.3319C57.682 14.8989 59.6484 12.9262 62.0736 12.9262V10.9346Z" fill="#343435"/>
<path fill-rule="evenodd" clip-rule="evenodd" d="M73.8724 11.2727H75.8481V23.4003H73.8724V21.9442C72.6841 23.0771 71.112 23.7159 69.4724 23.729C65.9685 23.5938 63.2371 20.6356 63.372 17.1204C63.4993 13.795 66.1577 11.128 69.4724 11.0003C71.1194 10.9852 72.7028 11.6315 73.8724 12.7945V11.2727ZM69.4724 12.926C71.8976 12.926 73.863 14.8987 73.863 17.3318C73.863 19.7648 71.8976 21.7375 69.4724 21.7375C67.0463 21.7375 65.0799 19.7648 65.0799 17.3318C65.0855 14.9006 67.0491 12.9317 69.4724 12.926Z" fill="#343435"/>
<path fill-rule="evenodd" clip-rule="evenodd" d="M80.7758 11.2727H78.8281V23.4003H80.7758V17.3318C80.7776 14.8988 82.7459 12.9279 85.1711 12.9298C87.5934 12.9317 89.557 14.9016 89.5589 17.3318V23.4003H91.5168V17.3318C91.5187 14.8988 93.486 12.9279 95.9111 12.9298C98.3335 12.9317 100.298 14.9016 100.3 17.3318V23.4003H102.248V17.3318C102.243 13.8147 99.3972 10.9665 95.8905 10.9702C93.7098 10.973 91.6835 12.0984 90.5233 13.95C89.3585 12.0947 87.3247 10.9702 85.1392 10.9721C83.494 10.9543 81.9097 11.5968 80.7383 12.7569V11.2727H80.7758Z" fill="#343435"/>
</g>
<mask id="mask1_154_4276" style="mask-type:alpha" maskUnits="userSpaceOnUse" x="0" y="0" width="29" height="30">
<path d="M5.51679 1.99154C2.37904 3.71251 0.339635 6.88861 0.0390625 10.416V13.2774C0.167344 13.7565 0.609308 14.1041 1.12618 14.0909C1.72733 14.0862 2.21236 13.5949 2.21236 12.9918V11.4982C2.17678 8.34185 3.86504 5.41845 6.61234 3.87973C9.31655 2.25551 12.6921 2.25551 15.3954 3.87973L16.6876 4.64064C16.6914 4.64251 16.6951 4.64439 16.6979 4.64627C17.2138 4.94218 17.8721 4.7637 18.1671 4.24609H18.1858C18.4742 3.72285 18.301 3.06433 17.7935 2.75245L16.4816 1.99154C14.7943 0.976999 12.8972 0.469727 11.0001 0.469727C9.10213 0.469727 7.20412 0.976999 5.51679 1.99154ZM19.9518 5.36021C19.6746 5.89473 19.8825 6.5523 20.4153 6.82942L21.6878 7.59033C24.436 9.12624 26.1233 12.0525 26.0793 15.2088C26.1168 18.3661 24.4323 21.2905 21.6878 22.8367L15.3495 26.5088C12.6425 28.1358 9.26318 28.1358 6.55615 26.5088C3.80793 24.9757 2.12622 22.0467 2.18427 18.8912V17.3967C2.17397 16.7964 1.688 16.3126 1.08873 16.3079C0.584963 16.3126 0.163599 16.6564 0.0390625 17.1224V19.9565C0.33589 23.4745 2.34626 26.6506 5.45124 28.4073C8.82964 30.4261 13.0386 30.4261 16.417 28.4073L22.7927 24.7249C26.2366 22.816 28.3481 19.1543 28.2798 15.2088C28.3285 11.2728 26.2217 7.62603 22.7927 5.71154L21.5108 4.95064C21.4799 4.93091 21.449 4.91212 21.4162 4.89615C21.2561 4.81254 21.0848 4.77215 20.9162 4.77215C20.5239 4.77215 20.1456 4.98633 19.9518 5.36021ZM7.71724 5.83367C5.66099 6.9863 4.39409 9.17227 4.41282 11.5348V18.8912C4.37068 21.2613 5.64414 23.4567 7.71724 24.5934C9.73604 25.8061 12.2549 25.8061 14.2727 24.5934L15.564 23.8325C16.0724 23.5168 16.2307 22.8498 15.9207 22.3398C15.6267 21.8193 14.9703 21.638 14.4525 21.9321C14.445 21.9358 14.4385 21.9405 14.4319 21.9443L13.1491 22.7052C11.7867 23.4943 10.1097 23.4943 8.74724 22.7052C7.37922 21.9321 6.54492 20.4666 6.57582 18.8912V11.5348C6.55241 9.95291 7.40263 8.48557 8.78564 7.72279C10.1443 6.92336 11.8279 6.92336 13.1856 7.72279L19.5248 11.4043C20.8966 12.1708 21.7365 13.6335 21.7065 15.2088C21.7327 16.7861 20.8956 18.2496 19.5248 19.0228L18.2326 19.7837C17.7317 20.1134 17.5903 20.7888 17.9189 21.2923C18.2242 21.7602 18.8338 21.9208 19.3282 21.6625L20.6016 20.9109C22.6625 19.7611 23.9294 17.5733 23.9079 15.2088C23.9463 12.8425 22.6728 10.6499 20.6016 9.51609L14.2727 5.83367C13.2652 5.22118 12.1303 4.91588 10.9945 4.91588C9.85964 4.91588 8.72477 5.22118 7.71724 5.83367ZM9.0731 10.4762C8.88864 10.7993 8.79032 11.1628 8.78558 11.5348V13.0294C8.84088 13.6335 9.37554 14.0787 9.97763 14.0214C10.5029 13.9735 10.9187 13.5555 10.9674 13.0294V11.9961C10.9683 11.9003 11.0179 11.812 11.0975 11.7612C11.1865 11.7331 11.281 11.7331 11.37 11.7612L14.1791 13.3582L16.9872 14.9843C17.079 15.0181 17.1343 15.1121 17.1193 15.2088C17.1258 15.3065 17.0743 15.3995 16.9872 15.4437L14.1791 17.0312L11.37 18.6564C11.2829 18.694 11.1855 18.694 11.0975 18.6564C11.0095 18.6198 10.9552 18.5277 10.9674 18.4309V17.3967C10.9112 16.7936 10.3775 16.3483 9.77444 16.4047C9.25007 16.4535 8.83433 16.8706 8.78558 17.3967V18.8912C8.78002 19.6709 9.20044 20.3924 9.88118 20.77C10.5554 21.1655 11.3887 21.1655 12.0629 20.77L18.4021 17.0885C19.0819 16.71 19.5023 15.9895 19.4977 15.2088C19.4977 14.4301 19.0791 13.7114 18.4021 13.33L12.0629 9.657C11.7193 9.46067 11.3466 9.36766 10.9777 9.36766C10.2173 9.36673 9.47761 9.76597 9.0731 10.4762Z" fill="white"/>
</mask>
<g mask="url(#mask1_154_4276)">
<path fill-rule="evenodd" clip-rule="evenodd" d="M5.51679 1.99154C2.37904 3.71251 0.339635 6.88861 0.0390625 10.416V13.2774C0.167344 13.7565 0.609308 14.1041 1.12618 14.0909C1.72733 14.0862 2.21236 13.5949 2.21236 12.9918V11.4982C2.17678 8.34185 3.86504 5.41845 6.61234 3.87973C9.31655 2.25551 12.6921 2.25551 15.3954 3.87973L16.6876 4.64064C16.6914 4.64251 16.6951 4.64439 16.6979 4.64627C17.2138 4.94218 17.8721 4.7637 18.1671 4.24609H18.1858C18.4742 3.72285 18.301 3.06433 17.7935 2.75245L16.4816 1.99154C14.7943 0.976999 12.8972 0.469727 11.0001 0.469727C9.10213 0.469727 7.20412 0.976999 5.51679 1.99154ZM19.9518 5.36021C19.6746 5.89473 19.8825 6.5523 20.4153 6.82942L21.6878 7.59033C24.436 9.12624 26.1233 12.0525 26.0793 15.2088C26.1168 18.3661 24.4323 21.2905 21.6878 22.8367L15.3495 26.5088C12.6425 28.1358 9.26318 28.1358 6.55615 26.5088C3.80793 24.9757 2.12622 22.0467 2.18427 18.8912V17.3967C2.17397 16.7964 1.688 16.3126 1.08873 16.3079C0.584963 16.3126 0.163599 16.6564 0.0390625 17.1224V19.9565C0.33589 23.4745 2.34626 26.6506 5.45124 28.4073C8.82964 30.4261 13.0386 30.4261 16.417 28.4073L22.7927 24.7249C26.2366 22.816 28.3481 19.1543 28.2798 15.2088C28.3285 11.2728 26.2217 7.62603 22.7927 5.71154L21.5108 4.95064C21.4799 4.93091 21.449 4.91212 21.4162 4.89615C21.2561 4.81254 21.0848 4.77215 20.9162 4.77215C20.5239 4.77215 20.1456 4.98633 19.9518 5.36021ZM7.71724 5.83367C5.66099 6.9863 4.39409 9.17227 4.41282 11.5348V18.8912C4.37068 21.2613 5.64414 23.4567 7.71724 24.5934C9.73604 25.8061 12.2549 25.8061 14.2727 24.5934L15.564 23.8325C16.0724 23.5168 16.2307 22.8498 15.9207 22.3398C15.6267 21.8193 14.9703 21.638 14.4525 21.9321C14.445 21.9358 14.4385 21.9405 14.4319 21.9443L13.1491 22.7052C11.7867 23.4943 10.1097 23.4943 8.74724 22.7052C7.37922 21.9321 6.54492 20.4666 6.57582 18.8912V11.5348C6.55241 9.95291 7.40263 8.48557 8.78564 7.72279C10.1443 6.92336 11.8279 6.92336 13.1856 7.72279L19.5248 11.4043C20.8966 12.1708 21.7365 13.6335 21.7065 15.2088C21.7327 16.7861 20.8956 18.2496 19.5248 19.0228L18.2326 19.7837C17.7317 20.1134 17.5903 20.7888 17.9189 21.2923C18.2242 21.7602 18.8338 21.9208 19.3282 21.6625L20.6016 20.9109C22.6625 19.7611 23.9294 17.5733 23.9079 15.2088C23.9463 12.8425 22.6728 10.6499 20.6016 9.51609L14.2727 5.83367C13.2652 5.22118 12.1303 4.91588 10.9945 4.91588C9.85964 4.91588 8.72477 5.22118 7.71724 5.83367ZM9.0731 10.4762C8.88864 10.7993 8.79032 11.1628 8.78558 11.5348V13.0294C8.84088 13.6335 9.37554 14.0787 9.97763 14.0214C10.5029 13.9735 10.9187 13.5555 10.9674 13.0294V11.9961C10.9683 11.9003 11.0179 11.812 11.0975 11.7612C11.1865 11.7331 11.281 11.7331 11.37 11.7612L14.1791 13.3582L16.9872 14.9843C17.079 15.0181 17.1343 15.1121 17.1193 15.2088C17.1258 15.3065 17.0743 15.3995 16.9872 15.4437L14.1791 17.0312L11.37 18.6564C11.2829 18.694 11.1855 18.694 11.0975 18.6564C11.0095 18.6198 10.9552 18.5277 10.9674 18.4309V17.3967C10.9112 16.7936 10.3775 16.3483 9.77444 16.4047C9.25007 16.4535 8.83433 16.8706 8.78558 17.3967V18.8912C8.78002 19.6709 9.20044 20.3924 9.88118 20.77C10.5554 21.1655 11.3887 21.1655 12.0629 20.77L18.4021 17.0885C19.0819 16.71 19.5023 15.9895 19.4977 15.2088C19.4977 14.4301 19.0791 13.7114 18.4021 13.33L12.0629 9.657C11.7193 9.46067 11.3466 9.36766 10.9777 9.36766C10.2173 9.36673 9.47761 9.76597 9.0731 10.4762Z" fill="url(#paint0_linear_154_4276)"/>
</g>
<defs>
<linearGradient id="paint0_linear_154_4276" x1="13.5052" y1="37.5008" x2="15.192" y2="-13.936" gradientUnits="userSpaceOnUse">
<stop stop-color="#FB6723"/>
<stop offset="1" stop-color="#FF9500"/>
</linearGradient>
</defs>
</svg>
