<svg xmlns="http://www.w3.org/2000/svg" width="60.223" height="30.797" viewBox="0 0 68.223 39.797">
  <g id="Сгруппировать_183" data-name="Сгруппировать 183" transform="translate(-267.088 -139.125)">
    <path id="Контур_2" data-name="Контур 2" d="M69.881,15.81H7.343A2.851,2.851,0,0,1,4.5,12.968h0a2.851,2.851,0,0,1,2.843-2.843H69.881a2.851,2.851,0,0,1,2.843,2.843h0A2.851,2.851,0,0,1,69.881,15.81Z" transform="translate(262.588 129)" fill="#313136"/>
    <path id="Контур_3" data-name="Контур 3" d="M69.881,22.56H7.343A2.851,2.851,0,0,1,4.5,19.718h0a2.851,2.851,0,0,1,2.843-2.843H69.881a2.851,2.851,0,0,1,2.843,2.843h0A2.851,2.851,0,0,1,69.881,22.56Z" transform="translate(262.588 139.307)" fill="#313136"/>
    <path id="Контур_4" data-name="Контур 4" d="M69.881,29.31H7.343A2.851,2.851,0,0,1,4.5,26.468h0a2.851,2.851,0,0,1,2.843-2.843H69.881a2.851,2.851,0,0,1,2.843,2.843h0A2.851,2.851,0,0,1,69.881,29.31Z" transform="translate(262.588 149.611)" fill="#313136"/>
  </g>
</svg>
