<svg width="24" height="24" viewBox="0 0 24 24" fill="none" xmlns="http://www.w3.org/2000/svg">
<path d="M5.49151 7.46461H2.12288C1.5053 7.46461 1 6.94552 1 6.31107C1 5.67663 1.5053 5.15753 2.12288 5.15753H5.49151C6.1091 5.15753 6.61439 5.67663 6.61439 6.31107C6.61439 6.94552 6.1091 7.46461 5.49151 7.46461ZM5.49151 10.9252H2.12288C1.5053 10.9252 1 11.4443 1 12.0788C1 12.7132 1.5053 13.2323 2.12288 13.2323H5.49151C6.1091 13.2323 6.61439 12.7132 6.61439 12.0788C6.61439 11.4443 6.1091 10.9252 5.49151 10.9252ZM21.0771 18.181L17.5737 14.5819C16.608 15.2279 15.4514 15.5971 14.2051 15.5278C11.5438 15.401 9.26439 13.2669 8.90507 10.5561C8.411 6.69174 11.6561 3.42722 15.4514 4.08474C17.6411 4.46541 19.4601 6.21879 19.943 8.44512C20.3135 10.1293 19.9542 11.6981 19.1569 12.9439L22.6716 16.5545C23.1095 17.0044 23.1095 17.7311 22.6716 18.181C22.2336 18.6309 21.515 18.6309 21.0771 18.181ZM17.8432 9.77169C17.8432 7.86835 16.3273 6.31107 14.4745 6.31107C12.6218 6.31107 11.1059 7.86835 11.1059 9.77169C11.1059 11.675 12.6218 13.2323 14.4745 13.2323C16.3273 13.2323 17.8432 11.675 17.8432 9.77169ZM2.12288 19H11.1059C11.7235 19 12.2288 18.4809 12.2288 17.8465C12.2288 17.212 11.7235 16.6929 11.1059 16.6929H2.12288C1.5053 16.6929 1 17.212 1 17.8465C1 18.4809 1.5053 19 2.12288 19Z" fill="#AAAAAA"/>
</svg>
