<svg width="20" height="20" viewBox="0 0 20 20" fill="none" xmlns="http://www.w3.org/2000/svg">
<path d="M15 7.16669C14.5417 7.16669 14.1667 7.54169 14.1667 8.00002V15.1834C14.1667 15.6417 13.7917 16.0167 13.3333 16.0167H5C4.54167 16.0167 4.16667 15.6417 4.16667 15.1834V6.66669C4.16667 6.20835 4.54167 5.83335 5 5.83335H11.6667C12.125 5.83335 12.5 5.45835 12.5 5.00002C12.5 4.54169 12.125 4.16669 11.6667 4.16669H4.16667C3.25 4.16669 2.5 4.91669 2.5 5.83335V15.8334C2.5 16.75 3.25 17.5 4.16667 17.5H14.1667C15.0833 17.5 15.8333 16.75 15.8333 15.8334V8.00002C15.8333 7.54169 15.4583 7.16669 15 7.16669Z" fill="#0D47A1"/>
<path d="M11.6667 7.5H6.66666C6.20833 7.5 5.83333 7.875 5.83333 8.33333C5.83333 8.79167 6.20833 9.16667 6.66666 9.16667H11.6667C12.125 9.16667 12.5 8.79167 12.5 8.33333C12.5 7.875 12.125 7.5 11.6667 7.5Z" fill="#0D47A1"/>
<path d="M11.6667 10H6.66666C6.20833 10 5.83333 10.375 5.83333 10.8333C5.83333 11.2917 6.20833 11.6667 6.66666 11.6667H11.6667C12.125 11.6667 12.5 11.2917 12.5 10.8333C12.5 10.375 12.125 10 11.6667 10Z" fill="#0D47A1"/>
<path d="M11.6667 12.5H6.66666C6.20833 12.5 5.83333 12.875 5.83333 13.3333C5.83333 13.7917 6.20833 14.1667 6.66666 14.1667H11.6667C12.125 14.1667 12.5 13.7917 12.5 13.3333C12.5 12.875 12.125 12.5 11.6667 12.5Z" fill="#0D47A1"/>
</svg>
