<svg width="80" height="50" viewBox="0 0 816 218" fill="none" xmlns="http://www.w3.org/2000/svg">
<path d="M97.8993 0.0092791H34.4415C32.3407 0.00795404 30.3085 0.756958 28.711 2.12134C27.1136 3.48571 26.0559 5.37575 25.7286 7.4509L0.0634087 170.174C-0.0545822 170.929 -0.00751498 171.7 0.201347 172.436C0.410208 173.171 0.775907 173.852 1.27328 174.432C1.77065 175.012 2.38786 175.478 3.08243 175.797C3.777 176.116 4.53241 176.28 5.29666 176.279H35.592C37.6942 176.28 39.7275 175.53 41.3251 174.164C42.9228 172.797 43.9796 170.905 44.3049 168.828L51.2269 124.939C51.5519 122.864 52.6073 120.973 54.2031 119.607C55.7988 118.241 57.8298 117.49 59.9304 117.489H80.0191C121.82 117.489 145.945 97.2607 152.245 57.1761C155.085 39.6391 152.366 25.8601 144.154 16.2101C135.135 5.61369 119.139 0.0092791 97.8993 0.0092791V0.0092791ZM105.22 59.4402C101.75 82.2104 84.3523 82.2104 67.5298 82.2104H57.954L64.6719 39.6855C64.8686 38.4414 65.5028 37.3083 66.4604 36.4902C67.4181 35.672 68.6363 35.2224 69.8959 35.2224H74.2848C85.7441 35.2224 96.5539 35.2224 102.14 41.7547C105.471 45.6518 106.492 51.4418 105.22 59.4402V59.4402ZM287.586 58.7071H257.198C255.939 58.7072 254.72 59.1567 253.763 59.9749C252.805 60.793 252.171 61.9261 251.974 63.1702L250.629 71.6697L248.504 68.5891C241.925 59.0412 227.255 55.8493 212.614 55.8493C179.033 55.8493 150.353 81.2825 144.767 116.96C141.862 134.756 145.992 151.774 156.087 163.641C165.347 174.553 178.597 179.1 194.362 179.1C221.419 179.1 236.423 161.702 236.423 161.702L235.068 170.146C234.948 170.901 234.992 171.673 235.198 172.409C235.405 173.145 235.768 173.828 236.264 174.41C236.76 174.992 237.376 175.46 238.069 175.781C238.763 176.102 239.518 176.269 240.283 176.27H267.655C269.758 176.271 271.791 175.521 273.389 174.154C274.986 172.788 276.043 170.896 276.368 168.819L292.792 64.8126C292.913 64.0594 292.869 63.2888 292.663 62.5543C292.457 61.8197 292.094 61.1387 291.599 60.5581C291.104 59.9776 290.489 59.5115 289.796 59.1919C289.103 58.8723 288.349 58.7069 287.586 58.7071V58.7071ZM245.229 117.85C242.296 135.211 228.517 146.865 210.943 146.865C202.119 146.865 195.067 144.035 190.539 138.672C186.048 133.346 184.341 125.765 185.77 117.321C188.507 100.109 202.518 88.0746 219.823 88.0746C228.452 88.0746 235.467 90.9418 240.088 96.3513C244.718 101.817 246.555 109.444 245.229 117.85V117.85ZM449.428 58.7071H418.891C417.451 58.7094 416.033 59.063 414.761 59.7373C413.488 60.4115 412.399 61.3861 411.589 62.5764L369.472 124.615L351.62 64.9982C351.072 63.1799 349.953 61.5863 348.429 60.4533C346.905 59.3203 345.056 58.7081 343.157 58.7071H313.15C312.307 58.7049 311.477 58.9039 310.727 59.2875C309.977 59.6712 309.329 60.2284 308.838 60.9128C308.347 61.5972 308.027 62.3889 307.904 63.2222C307.78 64.0555 307.858 64.9061 308.13 65.7034L341.765 164.412L310.143 209.052C309.581 209.843 309.248 210.774 309.18 211.743C309.112 212.711 309.311 213.679 309.757 214.542C310.202 215.404 310.877 216.127 311.706 216.632C312.535 217.137 313.487 217.403 314.458 217.403H344.957C346.381 217.405 347.785 217.061 349.047 216.402C350.309 215.743 351.392 214.787 352.204 213.617L453.77 67.0117C454.321 66.2185 454.644 65.2898 454.704 64.3262C454.764 63.3626 454.559 62.4009 454.112 61.5453C453.665 60.6897 452.992 59.9729 452.166 59.4726C451.34 58.9723 450.393 58.7076 449.428 58.7071V58.7071Z" fill="#253B80"/>
<path d="M550.53 0.00927815H487.062C484.963 0.0101638 482.933 0.760167 481.338 2.12435C479.742 3.48853 478.686 5.37733 478.359 7.4509L452.694 170.174C452.574 170.927 452.62 171.698 452.827 172.433C453.034 173.167 453.398 173.848 453.894 174.428C454.389 175.009 455.005 175.475 455.698 175.794C456.391 176.114 457.145 176.279 457.908 176.279H490.477C491.946 176.277 493.367 175.751 494.482 174.795C495.598 173.839 496.336 172.516 496.564 171.064L503.848 124.939C504.173 122.864 505.228 120.973 506.824 119.607C508.42 118.241 510.451 117.49 512.551 117.488H532.631C574.441 117.488 598.557 97.2607 604.866 57.1761C607.715 39.6391 604.978 25.8601 596.766 16.2101C587.756 5.61369 571.769 0.00927815 550.53 0.00927815V0.00927815ZM557.851 59.4402C554.39 82.2104 536.992 82.2104 520.16 82.2104H510.594L517.321 39.6855C517.514 38.4414 518.145 37.3074 519.102 36.4887C520.058 35.6701 521.276 35.2209 522.535 35.2224H526.924C538.374 35.2224 549.193 35.2224 554.779 41.7547C558.11 45.6518 559.122 51.4418 557.851 59.4402V59.4402ZM740.207 58.7071H709.838C708.578 58.7037 707.359 59.1522 706.402 59.9712C705.445 60.7902 704.814 61.9253 704.623 63.1702L703.278 71.6696L701.144 68.5891C694.565 59.0412 679.904 55.8493 665.262 55.8493C631.682 55.8493 603.011 81.2825 597.425 116.96C594.53 134.756 598.64 151.774 608.736 163.641C618.014 174.553 631.246 179.1 647.011 179.1C674.068 179.1 689.072 161.702 689.072 161.702L687.717 170.146C687.596 170.902 687.641 171.676 687.848 172.413C688.056 173.151 688.421 173.834 688.919 174.417C689.417 174.999 690.035 175.467 690.731 175.787C691.427 176.107 692.184 176.271 692.95 176.27H720.314C722.414 176.269 724.445 175.517 726.041 174.151C727.637 172.785 728.692 170.894 729.017 168.819L745.45 64.8126C745.566 64.057 745.518 63.2851 745.308 62.55C745.098 61.8148 744.731 61.1338 744.233 60.5538C743.735 59.9737 743.117 59.5083 742.423 59.1896C741.728 58.8708 740.972 58.7062 740.207 58.7071V58.7071ZM697.85 117.85C694.936 135.211 681.138 146.865 663.564 146.865C654.759 146.865 647.688 144.035 643.16 138.672C638.669 133.346 636.98 125.765 638.391 117.321C641.147 100.109 655.139 88.0746 672.444 88.0746C681.073 88.0746 688.088 90.9418 692.709 96.3513C697.358 101.817 699.195 109.444 697.85 117.85V117.85ZM776.033 4.47239L749.987 170.174C749.868 170.927 749.913 171.698 750.121 172.433C750.328 173.167 750.692 173.848 751.187 174.428C751.683 175.009 752.299 175.475 752.992 175.794C753.685 176.114 754.439 176.279 755.202 176.279H781.387C785.739 176.279 789.432 173.124 790.1 168.828L815.783 6.11475C815.903 5.36051 815.857 4.58939 815.65 3.85441C815.443 3.11943 815.079 2.43801 814.584 1.857C814.088 1.27598 813.473 0.809151 812.78 0.488592C812.087 0.168033 811.332 0.00135137 810.569 0H781.248C779.989 0.00445734 778.773 0.456971 777.817 1.27648C776.862 2.09599 776.229 3.22895 776.033 4.47239V4.47239Z" fill="#179BD7"/>
</svg>
