<svg xmlns="http://www.w3.org/2000/svg" width="22.5" height="27" viewBox="0 0 22.5 27">
  <g id="Group_69186" data-name="Group 69186" transform="translate(-201.174 -52)">
    <path id="Path_63" data-name="Path 63" d="M93.566,12.885A6.368,6.368,0,0,0,98.186,11,6.191,6.191,0,0,0,100.1,6.442a6.191,6.191,0,0,0-1.914-4.555,6.6,6.6,0,0,0-9.24,0,6.19,6.19,0,0,0-1.914,4.555A6.19,6.19,0,0,0,88.946,11,6.37,6.37,0,0,0,93.566,12.885ZM90.07,3a4.993,4.993,0,0,1,6.992,0,4.625,4.625,0,0,1,1.449,3.447,4.625,4.625,0,0,1-1.449,3.447,4.992,4.992,0,0,1-6.992,0,4.624,4.624,0,0,1-1.449-3.447A4.625,4.625,0,0,1,90.07,3Zm0,0" transform="translate(118.689 52)"/>
    <path id="Path_64" data-name="Path 64" d="M22.445,254.964a15.789,15.789,0,0,0-.219-1.69,13.226,13.226,0,0,0-.419-1.7,8.359,8.359,0,0,0-.7-1.585,5.979,5.979,0,0,0-1.062-1.373,4.687,4.687,0,0,0-1.526-.951,5.311,5.311,0,0,0-1.948-.35,1.986,1.986,0,0,0-1.056.444c-.316.2-.687.441-1.1.7a6.328,6.328,0,0,1-1.423.622,5.569,5.569,0,0,1-3.481,0,6.308,6.308,0,0,1-1.422-.622c-.409-.259-.78-.5-1.1-.7a1.984,1.984,0,0,0-1.055-.444,5.3,5.3,0,0,0-1.947.35,4.684,4.684,0,0,0-1.526.951A5.983,5.983,0,0,0,1.4,249.99a8.377,8.377,0,0,0-.7,1.585,13.261,13.261,0,0,0-.419,1.7,15.683,15.683,0,0,0-.219,1.691c-.036.511-.054,1.042-.054,1.58a4.423,4.423,0,0,0,1.33,3.36,4.81,4.81,0,0,0,3.427,1.24H17.743a4.811,4.811,0,0,0,3.427-1.24,4.421,4.421,0,0,0,1.33-3.361c0-.539-.019-1.071-.055-1.58Zm-2.365,3.8a3.239,3.239,0,0,1-2.338.808H4.757a3.239,3.239,0,0,1-2.338-.808,2.887,2.887,0,0,1-.839-2.225c0-.5.017-1,.05-1.471a14.144,14.144,0,0,1,.2-1.522,11.692,11.692,0,0,1,.369-1.5,6.819,6.819,0,0,1,.573-1.289,4.432,4.432,0,0,1,.78-1.014,3.109,3.109,0,0,1,1.015-.626,3.663,3.663,0,0,1,1.245-.238c.055.029.154.085.314.188.325.21.7.45,1.113.712a7.861,7.861,0,0,0,1.786.792,7.161,7.161,0,0,0,4.453,0,7.871,7.871,0,0,0,1.787-.792c.424-.269.788-.5,1.113-.711.16-.1.258-.159.314-.188a3.665,3.665,0,0,1,1.245.238,3.114,3.114,0,0,1,1.015.626,4.422,4.422,0,0,1,.78,1.015,6.8,6.8,0,0,1,.573,1.288,11.665,11.665,0,0,1,.369,1.5,14.263,14.263,0,0,1,.2,1.523h0c.034.473.05.968.051,1.471a2.887,2.887,0,0,1-.839,2.225Zm0,0" transform="translate(201.174 -182.144)"/>
  </g>
</svg>
