<svg xmlns="http://www.w3.org/2000/svg" width="16" height="18.21" viewBox="0 0 16 18.21">
  <g id="delete" transform="translate(-31.073)">
    <g id="Group_70249" data-name="Group 70249" transform="translate(31.073)">
      <g id="Group_70248" data-name="Group 70248" transform="translate(0)">
        <path id="Path_257" data-name="Path 257" d="M46.625,3.266H44.472V1.234A1.236,1.236,0,0,0,43.238,0h-8.33a1.236,1.236,0,0,0-1.234,1.234V3.266H31.521a.448.448,0,0,0-.448.448V6.761a.448.448,0,0,0,.448.448H32l.238,1.929a.268.268,0,0,0,.531-.066l-.23-1.863H45.6L44.31,17.675H33.836l-.862-6.985a.268.268,0,1,0-.531.066l.87,7.046a.474.474,0,0,0,.476.408H44.358a.474.474,0,0,0,.476-.408L46.141,7.209h.484a.448.448,0,0,0,.448-.448V3.714A.449.449,0,0,0,46.625,3.266ZM34.908.535h8.33a.7.7,0,0,1,.7.7V3.266H42.7V2.2a.566.566,0,0,0-.566-.566H41.32a.268.268,0,0,0,0,.535h.811a.03.03,0,0,1,.03.03V3.266H35.984V2.2a.03.03,0,0,1,.03-.03h3.641a.268.268,0,0,0,0-.535H36.014a.566.566,0,0,0-.566.566V3.266h-1.24V1.234h0A.7.7,0,0,1,34.908.535Zm11.63,6.139H31.608V3.8h14.93Z" transform="translate(-31.073)" fill="#686868"/>
      </g>
    </g>
    <g id="Group_70251" data-name="Group 70251" transform="translate(37.981 8.306)">
      <g id="Group_70250" data-name="Group 70250">
        <path id="Path_258" data-name="Path 258" d="M226.611,233.528h-.437a.874.874,0,0,0-.873.873v6.08a.874.874,0,0,0,.873.873h.437a.874.874,0,0,0,.873-.873V234.4A.874.874,0,0,0,226.611,233.528Zm.338,6.953a.339.339,0,0,1-.338.338h-.437a.339.339,0,0,1-.338-.338V234.4a.339.339,0,0,1,.338-.338h.437a.339.339,0,0,1,.338.338Z" transform="translate(-225.301 -233.528)" fill="#686868"/>
      </g>
    </g>
    <g id="Group_70253" data-name="Group 70253" transform="translate(41.328 8.298)">
      <g id="Group_70252" data-name="Group 70252" transform="translate(0)">
        <path id="Path_259" data-name="Path 259" d="M321.241,233.343l-.436-.033a.873.873,0,0,0-.936.805l-.456,6.063a.874.874,0,0,0,.805.937l.436.033h0l.067,0a.874.874,0,0,0,.87-.808l.456-6.063A.874.874,0,0,0,321.241,233.343Zm.272.9-.456,6.063a.338.338,0,0,1-.363.312l-.436-.033a.339.339,0,0,1-.312-.363l.456-6.063a.338.338,0,0,1,.337-.313h.026l.436.033a.338.338,0,0,1,.312.363Z" transform="translate(-319.41 -233.308)" fill="#686868"/>
      </g>
    </g>
    <g id="Group_70255" data-name="Group 70255" transform="translate(34.179 8.298)">
      <g id="Group_70254" data-name="Group 70254" transform="translate(0)">
        <path id="Path_260" data-name="Path 260" d="M121.032,240.179l-.456-6.063a.873.873,0,0,0-.936-.805l-.436.033a.874.874,0,0,0-.805.936l.456,6.063a.873.873,0,0,0,.87.808l.067,0,.436-.033A.874.874,0,0,0,121.032,240.179Zm-.846.4-.436.033h0a.338.338,0,0,1-.363-.312l-.456-6.063a.338.338,0,0,1,.312-.363l.436-.033h.026a.338.338,0,0,1,.337.313l.456,6.063A.339.339,0,0,1,120.187,240.582Z" transform="translate(-118.396 -233.309)" fill="#686868"/>
      </g>
    </g>
  </g>
</svg>
