<svg xmlns="http://www.w3.org/2000/svg" width="28.5" height="28.5" viewBox="0 0 28.5 28.5">
  <g id="shopping-cart" transform="translate(0.75 0.75)">
    <g id="shopping-cart-2" data-name="shopping-cart">
      <path id="Path_17" data-name="Path 17" d="M8.1,21.6a2.7,2.7,0,1,0,2.7,2.7A2.708,2.708,0,0,0,8.1,21.6ZM0,0V2.7H2.7L7.56,12.96,5.67,16.2a4.8,4.8,0,0,0-.27,1.35,2.708,2.708,0,0,0,2.7,2.7H24.3v-2.7H8.64a.29.29,0,0,1-.27-.27v-.135l1.215-2.3h9.99a2.462,2.462,0,0,0,2.3-1.35l4.86-8.775A.743.743,0,0,0,27,4.05,1.275,1.275,0,0,0,25.65,2.7H5.67L4.455,0ZM21.6,21.6a2.7,2.7,0,1,0,2.7,2.7A2.708,2.708,0,0,0,21.6,21.6Z" fill="none" stroke="#232323" stroke-width="1.5"/>
    </g>
  </g>
</svg>
