<svg width="74" height="25" viewBox="0 0 74 25" fill="none" xmlns="http://www.w3.org/2000/svg">
<g clip-path="url(#clip0_1140_10322)">
<path d="M61.323 12.2987H52.4312C52.396 13.7448 53.2427 14.761 54.5129 14.8391C55.3247 14.8782 56.0304 14.7219 56.4891 13.8621L56.5595 13.7448L61.1113 13.7057C61.1113 13.7057 61.0761 13.9402 61.041 14.0184C60.5467 15.8944 59.3824 16.9888 57.7238 17.4578C55.748 18.0441 53.7369 18.0441 51.7255 17.4969C49.7145 16.9498 48.4794 15.5036 48.1266 13.2367C47.8793 11.6733 47.8793 10.1491 48.1617 8.58563C48.5498 6.39693 49.7848 5.02894 51.7255 4.52086C53.7014 3.97368 55.7127 3.97368 57.6886 4.55994C59.7352 5.1853 60.8995 6.67052 61.182 8.93742C61.323 9.99277 61.323 12.1033 61.323 12.2987ZM56.9123 9.75813C56.736 8.07756 55.9597 7.37399 54.4425 7.4522C53.2782 7.49127 52.5018 8.3902 52.4312 9.75813H56.9123Z" fill="#EE6F32"/>
<path d="M26.4281 13.7447C26.1811 14.9563 25.6518 15.8944 24.8049 16.637C23.9228 17.3796 22.8996 17.6923 21.8057 17.8486C20.2532 18.0441 18.7006 18.0441 17.1481 17.6532C14.9604 17.0278 13.6549 15.4645 13.4079 12.924C13.2667 11.556 13.2667 10.1099 13.5138 8.74192C13.9371 6.475 15.2074 5.10706 17.1834 4.63805C19.0181 4.20811 20.8883 4.16903 22.7231 4.63805C25.0166 5.2243 26.2869 6.82678 26.5339 9.40635C26.6397 10.3835 26.6751 11.3997 26.6045 12.4158C23.57 12.4158 20.6413 12.3768 17.6774 12.3768C17.7479 14.4482 19.3711 15.5426 21.0294 14.6827C21.3471 14.5263 21.8057 14.0573 22.0174 13.8228C23.4994 13.7447 24.9814 13.7447 26.4281 13.7447ZM22.2291 9.71906C22.2291 8.35106 21.3823 7.41306 20.0415 7.41306C18.6654 7.41306 17.8186 8.31199 17.8186 9.71906H22.2291Z" fill="#EE6F32"/>
<path d="M4.62234 4.4028H0L7.16286 0.846138H5.92787L0 3.9338V3.19121L4.76346 0.846138H3.59905L0 2.68309V2.01867L2.22296 0.885231H1.1644L0 1.39332V0.103516H14.6785V1.39332L13.5494 0.846138H12.3851L14.6785 1.97959V2.64403L11.0795 0.846138H9.91507L14.6785 3.19121V3.81657L8.99771 0.846138H7.51571L14.6785 4.4028H9.98564V17.5744H4.62234V4.4028Z" fill="#EE6F32"/>
<path d="M47.1058 12.4941C47.0355 13.2758 46.8237 13.9011 46.612 14.5264C46.0473 16.2461 44.8478 17.1842 43.3306 17.5751C41.3896 18.1223 39.4492 18.1223 37.5086 17.5751C35.4265 16.9888 34.1918 15.5036 33.8742 13.1585C33.6624 11.5951 33.6624 10.0317 33.98 8.50742C34.4032 6.39688 35.6382 5.1071 37.5437 4.59901C39.5196 4.0518 41.531 4.0518 43.5069 4.63807C45.7297 5.30252 46.7178 6.90496 47.0354 9.25006C47.0354 9.3282 47.0355 9.44542 47.0706 9.52356H42.7305C42.6602 9.25006 42.5895 8.93742 42.4836 8.66378C42.2015 7.80392 41.6014 7.41306 40.7899 7.37399C40.5077 7.33492 40.1901 7.33492 39.9077 7.41306C39.0257 7.56942 38.4964 8.23385 38.3201 9.17192C38.0732 10.4226 38.0728 11.7124 38.2846 12.924C38.5315 14.2528 39.202 14.8391 40.4019 14.8391C41.6369 14.8391 42.307 14.2528 42.5895 12.9631C42.6247 12.8067 42.6602 12.6895 42.6954 12.4941C44.1773 12.4941 45.5535 12.4941 47.1058 12.4941Z" fill="#EE6F32"/>
<path d="M67.1809 17.6525H62.5234V11.6334V0.533455V0.0644531H67.1809V17.6525Z" fill="#EE6F32"/>
<path d="M32.5364 0.0644531H27.9141V17.5743H32.5364V0.0644531Z" fill="#EE6F32"/>
<path d="M73.2158 0.0644531H68.5938V17.5743H73.2158V0.0644531Z" fill="#EE6F32"/>
<path d="M48.5897 24.3373H4.69531V19.9209H47.5664L48.5897 24.3373Z" fill="#EE6F32"/>
<path d="M50.0308 24.3373L49.0781 19.9209H50.3484L50.7716 22.774L51.301 19.9209H52.3594L52.8181 22.774L53.2416 19.9209H54.4412L53.4886 24.3373H52.2183L51.7597 21.7188L51.3361 24.3373H50.0308Z" fill="#EE6F32"/>
<path d="M54.4453 24.3373L55.8569 19.9209H57.1271L58.5384 24.3373H57.2682L57.1271 23.751H55.8569L55.7155 24.3373H54.4453ZM56.1035 22.813H56.9154L56.527 21.2497L56.1035 22.813Z" fill="#EE6F32"/>
<path d="M58.9297 24.3373V19.9209H60.2351V23.1648H61.9995V24.3373H58.9297Z" fill="#EE6F32"/>
<path d="M62.4531 24.3373V19.9209H63.7233V23.1648H65.4878V24.3373H62.4531Z" fill="#EE6F32"/>
<path d="M66.0156 24.3373V19.9209H69.2266V20.9761H67.2858V21.5624H68.9089V22.5785H67.2858V23.282H69.2969V24.3763H66.0156V24.3373Z" fill="#EE6F32"/>
<path d="M70.7855 24.3373V21.0934H69.6562V19.9209H73.2551V21.0934H72.1265V24.3373H70.7855Z" fill="#EE6F32"/>
</g>
<defs>
<clipPath id="clip0_1140_10322">
<rect width="73.5714" height="25" fill="white"/>
</clipPath>
</defs>
</svg>
