<svg width="39" height="39" viewBox="0 0 39 39" fill="none" xmlns="http://www.w3.org/2000/svg">
<circle cx="19.5" cy="19.5" r="19" stroke="black"/>
<path d="M18.7279 28.3961C18.9295 28.5748 19.1896 28.6733 19.4589 28.6731L19.4539 28.6721C19.7231 28.6722 19.983 28.574 20.1849 28.3961C20.9222 27.7464 21.6335 27.1356 22.2663 26.5923L22.3399 26.5291C24.0235 25.1779 25.5953 23.6931 27.0399 22.0891C28.2067 20.8199 28.8733 19.1705 28.9159 17.4471C28.9422 15.9515 28.407 14.5004 27.4159 13.3801C26.937 12.8534 26.3525 12.4334 25.7006 12.1476C25.0486 11.8618 24.3438 11.7164 23.6319 11.7211C22.5518 11.7173 21.5028 12.0828 20.6589 12.7571C20.2005 13.1188 19.7964 13.5445 19.4589 14.0211C19.121 13.5433 18.7162 13.1166 18.2569 12.7541C17.4129 12.0811 16.3644 11.7166 15.2849 11.7211C14.5731 11.7164 13.8682 11.8617 13.2162 12.1475C12.5643 12.4334 11.9798 12.8533 11.5009 13.3801C10.5099 14.5004 9.97468 15.9515 10.0009 17.4471C10.0427 19.1719 10.7093 20.8228 11.8769 22.0931C13.3216 23.6971 14.8934 25.1819 16.5769 26.5331C17.2279 27.0901 17.9639 27.7231 18.7279 28.3961Z" fill="black"/>
</svg>
