<svg xmlns="http://www.w3.org/2000/svg" xmlns:xlink="http://www.w3.org/1999/xlink" width="369.83" height="76" viewBox="0 0 369.83 76">
  <defs>
    <linearGradient id="linear-gradient" x1="0.944" y1="0.5" x2="0" y2="0.531" gradientUnits="objectBoundingBox">
      <stop offset="0" stop-color="#ba1565"/>
      <stop offset="1" stop-color="#f56b2c"/>
    </linearGradient>
    <linearGradient id="linear-gradient-2" x1="1" y1="0.5" x2="0" y2="0.5" gradientUnits="objectBoundingBox">
      <stop offset="0" stop-color="#c9205b"/>
      <stop offset="1" stop-color="#c92d57"/>
    </linearGradient>
    <linearGradient id="linear-gradient-3" x1="1" y1="0.621" x2="0" y2="0.598" gradientUnits="objectBoundingBox">
      <stop offset="0" stop-color="#dd4249"/>
      <stop offset="1" stop-color="#e44c4a"/>
    </linearGradient>
  </defs>
  <g id="Group_69950" data-name="Group 69950" transform="translate(8817.001 -2872)">
    <g id="Group_69237" data-name="Group 69237" transform="translate(-8817.001 2879.733)">
      <path id="Path_891" data-name="Path 891" d="M-.058,0h15.8l4.842,14.841a10.066,10.066,0,0,1,3.528-.954c1.542,0,43.654-.767,45.856,0s2.129.753,3.515,2.024a6.686,6.686,0,0,1,2.023,3.441c.442,1.258,7.031,18.979,7.12,22.276s0,4.143-1.779,6.553a7.148,7.148,0,0,1-5.336,3.089c-1.769.286-43.787.453-46.434,0s-3.233-1.03-4.965-3.089a10.284,10.284,0,0,1-1.963-5.149s-4.935,0-6.406,0-2.737-1.8-2.643-3.447a3.31,3.31,0,0,1,2.643-3.149c1.291-.12,43.385-.144,43.385-.144l3,9.736,9.967-13.437L53.467,19.353l3.094,9.875s-52.659.091-53.8-.154a3.068,3.068,0,0,1-2.819-3.6c.159-2.848,2.033-2.964,2.819-3.2s12.608,0,12.608,0L10.54,7.308H2.267Z" transform="translate(19.671)" fill="url(#linear-gradient)"/>
      <circle id="Ellipse_160" data-name="Ellipse 160" cx="2.301" cy="2.301" r="2.301" transform="translate(0 22.375)" fill="#f97c2e"/>
      <circle id="Ellipse_161" data-name="Ellipse 161" cx="2.301" cy="2.301" r="2.301" transform="translate(9.203 22.375)" fill="#f97c2e"/>
      <circle id="Ellipse_162" data-name="Ellipse 162" cx="2.301" cy="2.301" r="2.301" transform="translate(23.009 37.714)" fill="#f97c2e"/>
      <circle id="Ellipse_165" data-name="Ellipse 165" cx="5.369" cy="5.369" r="5.369" transform="translate(82.831 54.587)" fill="url(#linear-gradient-2)"/>
      <circle id="Ellipse_163" data-name="Ellipse 163" cx="2.301" cy="2.301" r="2.301" transform="translate(13.805 37.714)" fill="#f97c2e"/>
      <circle id="Ellipse_164" data-name="Ellipse 164" cx="5.369" cy="5.369" r="5.369" transform="translate(55.221 54.587)" fill="url(#linear-gradient-3)"/>
    </g>
    <text id="ZegaShop" transform="translate(-8696.172 2932)" fill="#701d46" font-size="59" font-family="PTSans-Regular, PT Sans" letter-spacing="0.02em"><tspan x="0" y="0">Zegashop</tspan></text>
  </g>
</svg>
